/* XPM */ 
static const unsigned char * bitcoin64_xpm[] = {
"64 64 181 2",
"  	c None",
"! 	c #0080FF",
"# 	c #007FFF",
"$ 	c #007AFF",
"% 	c #0077FF",
"& 	c #0079FF",
"' 	c #0078FF",
"( 	c #007EFF",
") 	c #007BFF",
"* 	c #2A93FF",
"+ 	c #70B6FF",
", 	c #96C9FF",
"- 	c #A5D2FF",
". 	c #A2D0FF",
"0 	c #89C2FF",
"1 	c #46A1FF",
"2 	c #007CFF",
"3 	c #0981FF",
"4 	c #58AAFF",
"5 	c #91C5FF",
"6 	c #A4D1FF",
"7 	c #A3D1FF",
"8 	c #91C6FF",
"9 	c #67B1FF",
": 	c #1E8CFF",
"; 	c #71B6FF",
"< 	c #EFF7FF",
"= 	c white",
"> 	c #1185FF",
"? 	c #248FFF",
"@ 	c #BFDEFF",
"A 	c #E5F2FF",
"B 	c #5CABFF",
"C 	c #409EFF",
"D 	c #BEDEFF",
"E 	c #1687FF",
"F 	c #2C92FF",
"G 	c #D8EBFF",
"H 	c #F4FAFF",
"I 	c #2892FF",
"J 	c #6FB6FF",
"K 	c #C6E2FF",
"L 	c #1C89FF",
"M 	c #3295FF",
"N 	c #DCEEFF",
"O 	c #4EA6FF",
"P 	c #409FFF",
"Q 	c #CDE5FF",
"R 	c #228DFF",
"S 	c #389AFF",
"T 	c #E2F1FF",
"U 	c #F4F9FF",
"V 	c #2490FF",
"W 	c #037CFF",
"X 	c #D3E9FF",
"Y 	c #2890FF",
"Z 	c #E7F4FF",
"[ 	c #7FBEFF",
"] 	c #0F84FF",
"^ 	c #B3D8FF",
"_ 	c #D9ECFF",
"` 	c #2E94FF",
"a 	c #47A1FF",
"b 	c #EDF6FF",
"c 	c #91C8FF",
"d 	c #027BFF",
"e 	c #0A81FF",
"f 	c #A6D3FF",
"g 	c #DFEFFF",
"h 	c #3497FF",
"i 	c #51A6FF",
"j 	c #F1F9FF",
"k 	c #8AC3FF",
"l 	c #007DFF",
"m 	c #057FFF",
"n 	c #9ACCFF",
"o 	c #E4F2FF",
"p 	c #3C9CFF",
"q 	c #59AAFF",
"r 	c #F7FBFF",
"s 	c #7EBDFF",
"t 	c #017DFF",
"u 	c #8EC6FF",
"v 	c #EAF5FF",
"w 	c #449FFF",
"x 	c #62AEFF",
"y 	c #FAFDFF",
"z 	c #74B8FF",
"{ 	c #83C0FF",
"| 	c #4CA4FF",
"} 	c #6BB3FF",
"~ 	c #FDFEFF",
" !	c #FBFDFF",
"!!	c #79BAFF",
"#!	c #F5FAFF",
"$!	c #56A8FF",
"%!	c #73B7FF",
"&!	c #F6FBFF",
"'!	c #6DB4FF",
"(!	c #F9FCFF",
")!	c #60ADFF",
"*!	c #7BBCFF",
"+!	c #4EA5FF",
",!	c #FCFEFF",
"-!	c #68B2FF",
".!	c #E8F4FF",
"0!	c #439EFF",
"1!	c #55A8FF",
"2!	c #F3F9FF",
"3!	c #FEFFFF",
"4!	c #8AC4FF",
"5!	c #E1F0FF",
"6!	c #3999FF",
"7!	c #48A1FF",
"8!	c #ECF6FF",
"9!	c #7ABCFF",
":!	c #027DFF",
";!	c #92C9FF",
"<!	c #2F94FF",
"=!	c #3E9CFF",
">!	c #82C0FF",
"?!	c #057EFF",
"@!	c #9CCDFF",
"A!	c #D2E9FF",
"B!	c #2790FF",
"C!	c #DEEFFF",
"D!	c #0780FF",
"E!	c #C8E3FF",
"F!	c #208CFF",
"G!	c #2C93FF",
"H!	c #D6EBFF",
"I!	c #94C9FF",
"J!	c #0081FF",
"K!	c #0C82FF",
"L!	c #ADD6FF",
"M!	c #1888FF",
"N!	c #248EFF",
"O!	c #CDE6FF",
"P!	c #067FFF",
"Q!	c #1285FF",
"R!	c #B6DAFF",
"S!	c #1184FF",
"T!	c #1C8AFF",
"U!	c #C4E1FF",
"V!	c #2C8FFF",
"W!	c #BCDEFF",
"X!	c #1587FF",
"Y!	c #BADCFF",
"Z!	c #0E83FF",
"[!	c #AED6FF",
"]!	c #0880FF",
"^!	c #047EFF",
"_!	c #95CAFF",
"`!	c #78BAFF",
"a!	c #80BEFF",
"b!	c #61AEFF",
"c!	c #74B9FF",
"d!	c #54A8FF",
"e!	c #9FCEFF",
"f!	c #71B7FF",
"g!	c #0076FF",
"h!	c #5AACFF",
"i!	c #8FC6FF",
"j!	c #60AFFF",
"k!	c #90C6FF",
"l!	c #61AFFF",
"m!	c #6DB6FF",
"n!	c #47A2FF",
"o!	c #1C8CFF",
"p!	c #D5EAFF",
"q!	c #BBDEFF",
"r!	c #0C83FF",
"s!	c #1D8CFF",
"t!	c #81BEFF",
"u!	c #BADDFF",
"v!	c #D1E8FF",
"w!	c #CFE7FF",
"x!	c #B2D9FF",
"y!	c #74B7FF",
"z!	c #1186FF",
"{!	c #0680FF",
"! ! ! ! ! ! ! ! ! ! ! ! ! ! ! ! ! ! ! ! ! ! ! ! ! ! ! ! ! ! ! ! ! ! ! ! ! ! ! ! ! ! ! ! ! ! ! ! ! ! ! ! ! ! ! ! ! ! ! ! ! ! ! ! ",
"! ! ! ! ! ! ! ! ! ! ! ! ! ! ! ! ! ! ! ! ! ! ! ! ! ! ! ! ! ! ! ! ! ! ! ! ! ! ! ! ! ! ! ! ! ! ! ! ! ! ! ! ! ! ! ! ! ! ! ! ! ! ! ! ",
"! ! ! ! ! ! ! ! ! ! ! ! ! ! ! ! ! ! ! ! ! ! ! ! ! ! ! ! ! ! ! ! ! ! ! ! ! ! ! ! ! ! ! ! ! ! ! ! ! ! ! ! ! ! ! ! ! ! ! ! ! ! ! ! ",
"! ! ! ! ! ! ! ! ! ! ! ! ! ! ! ! ! ! ! ! ! ! ! ! ! ! ! ! ! ! ! ! ! ! ! ! ! ! ! ! ! ! ! ! ! ! ! ! ! ! ! ! ! ! ! ! ! ! ! ! ! ! ! ! ",
"! ! ! ! ! ! ! ! ! ! ! ! ! ! ! ! ! ! ! ! ! ! ! ! ! ! ! ! ! ! ! ! ! ! ! ! ! ! ! ! ! ! ! ! ! ! ! ! ! ! ! ! ! ! ! ! ! ! ! ! ! ! ! ! ",
"! ! ! ! ! ! ! ! ! ! ! ! ! ! ! ! ! ! ! ! ! ! ! ! ! ! ! ! ! ! ! ! ! ! ! ! ! ! ! ! ! ! ! ! ! ! ! ! ! ! ! ! ! ! ! ! ! ! ! ! ! ! ! ! ",
"! ! ! ! ! ! ! ! ! ! ! ! ! ! ! ! ! ! ! ! ! ! ! ! ! ! ! ! ! ! ! ! ! ! ! ! ! ! ! ! ! ! ! ! ! ! ! ! ! ! ! ! ! ! ! ! ! ! ! ! ! ! ! ! ",
"! ! ! ! ! ! ! # ! ! ! ! ! ! ! ! ! ! ! ! ! ! ! ! ! ! ! ! ! ! ! ! ! ! ! ! ! ! ! ! ! ! ! ! ! ! ! ! ! ! ! ! ! ! ! ! ! ! ! ! ! ! ! ! ",
"! ! ! ! $ % % & ' % ' # ! ! ! ! ! ! ! ! ! ! ! ! ! ! ! ! ! ! ! ! ! ! ! ! ! ! ! ! ! ! ! ! ! ! ! ! ! ! ! ! ! ( % % ' ' % % ) ! ! ! ",
"! ! # & * + , - . 0 1 2 2 ! ! ! ! ! ! ! ! ! ! ! ! ! ! ! ! ! ! ! ! ! ! ! ! ! ! ! ! ! ! ! ! ! ! ! ! ! ! ! ) 3 4 5 6 7 8 9 : ' # ! ",
"! ! $ ; < = = = = = = 6 > ) ! ! ! ! ! ! ! ! ! ! ! ! ! ! ! ! ! ! ! ! ! ! ! ! ! ! ! ! ! ! ! ! ! ! ! ! ! & ? @ = = = = = = A B $ ! ",
"! & C = = = = = = = = = D E $ ! ! ! ! ! ! ! ! ! ! ! ! ! ! ! ! ! ! ! ! ! ! ! ! ! ! ! ! ! ! ! ! ! ! ! ' F G = = = = = = = = H I $ ",
"! % J = = = = = = = = = = K L & ! ! ! ! ! ! ! ! ! ! ! ! ! ! ! ! ! ! ! ! ! ! ! ! ! ! ! ! ! ! ! ! ! ' M N = = = = = = = = = = O % ",
"! & P = = = = = = = = = = = Q R & ! ! ! ! ! ! ! ! ! ! ! ! ! ! ! ! ! ! ! ! ! ! ! ! ! ! ! ! ! ! ! ' S T = = = = = = = = = = U V ) ",
"! # W 6 = = = = = = = = = = = X Y & ! ! ! ! ! ! ! ! ! ! ! ! ! ! ! ! ! ! ! ! ! ! ! ! ! ! ! ! ! ' C Z = = = = = = = = = = = [ & ! ",
"! ! 2 ] ^ = = = = = = = = = = = _ ` ' ! ! ! ! ! ! ! ! ! ! ! ! ! ! ! ! ! ! ! ! ! ! ! ! ! ! ! ' a b = = = = = = = = = = = c d ( ! ",
"! ! ! 2 e f = = = = = = = = = = = g h ' ! ! ! ! ! ! ! ! ! ! ! ! ! ! ! ! ! ! ! ! ! ! ! ! # % i j = = = = = = = = = = = k 2 l ! ! ",
"! ! ! ! 2 m n = = = = = = = = = = = o p ' ! ! ! ! ! ! ! ! ! ! ! ! ! ! ! ! ! ! ! ! ! ! # ' q r = = = = = = = = = = = s $ ( ! ! ! ",
"! ! ! ! ! l t u = = = = = = = = = = = v w ' ! ! ! ! ! ! ! ! ! ! ! ! ! ! ! ! ! ! ! ! # ' x y = = = = = = = = = = = z & ( ! ! ! ! ",
"! ! ! ! ! ! l ) { = = = = = = = = = = = < | % # ! ! ! ! ! ! ! ! ! ! ! ! ! ! ! ! ! # ' } ~ = = = = = = = = = =  !9 ' # ! ! ! ! ! ",
"! ! ! ! ! ! ! ( $ !!= = = = = = = = = = = #!$!% # ! ! ! ! ! ! ! ! ! ! ! ! ! ! ! ( & %!= = = = = = = = = = = &!B ' # ! ! ! ! ! ! ",
"! ! ! ! ! ! ! ! ( & '!~ = = = = = = = = = = (!)!% # ! ! ! ! ! ! ! ! ! ! ! ! ! ( & *!= = = = = = = = = = = < +!% # ! ! ! ! ! ! ! ",
"! ! ! ! ! ! ! ! ! # ' x (!= = = = = = = = = = ,!-!' # ! ! ! ! ! ! ! ! ! ! ! ( $ { = = = = = = = = = = = .!0!' ! ! ! ! ! ! ! ! ! ",
"! ! ! ! ! ! ! ! ! ! # % 1!2!= = = = = = = = = = 3!; & ( ! ! ! ! ! ! ! ! ! l 2 4!= = = = = = = = = = = 5!6!% ! ! ! ! ! ! ! ! ! ! ",
"! ! ! ! ! ! ! ! ! ! ! # % 7!8!= = = = = = = = = = = 9!& ( ! ! ! ! ! ! ! l :!;!= = = = = = = = = = = _ <!' ! ! ! ! ! ! ! ! ! ! ! ",
"! ! ! ! ! ! ! ! ! ! ! ! ! ' =!A = = = = = = = = = = = >!$ ( ! ! ! ! ! l ?!@!= = = = = = = = = = = A!B!& ! ! ! ! ! ! ! ! ! ! ! ! ",
"! ! ! ! ! ! ! ! ! ! ! ! ! ! ' h C!= = = = = = = = = = = 4!2 l ! ! ! 2 D!6 = = = = = = = = = = = E!F!& ! ! ! ! ! ! ! ! ! ! ! ! ! ",
"! ! ! ! ! ! ! ! ! ! ! ! ! ! ! ' G!H!= = = = = = = = = = = I!:!l J!) K!L!= = = = = = = = = = = D M!$ ! ! ! ! ! ! ! ! ! ! ! ! ! ! ",
"! ! ! ! ! ! ! ! ! ! ! ! ! ! ! ! & N!O!= = = = = = = = = = = @!P!% Q!R!= = = = = = = = = = = ^ S!$ ! ! ! ! ! ! ! ! ! ! ! ! ! ! ! ",
"! ! ! ! ! ! ! ! ! ! ! ! ! ! ! ! ! & T!U!= = = = = = = = = = = 7 V!W!= = = = = = = = = = = f e 2 ! ! ! ! ! ! ! ! ! ! ! ! ! ! ! ! ",
"! ! ! ! ! ! ! ! ! ! ! ! ! ! ! ! ! ! $ X!Y!= = = = = = = = = = = < = = = = = = = = = = = n m 2 ! ! ! ! ! ! ! ! ! ! ! ! ! ! ! ! ! ",
"! ! ! ! ! ! ! ! ! ! ! ! ! ! ! ! ! ! ! ) Z![!= = = = = = = = = = = = = = = = = = = = = u t l ! ! ! ! ! ! ! ! ! ! ! ! ! ! ! ! ! ! ",
"! ! ! ! ! ! ! ! ! ! ! ! ! ! ! ! ! ! ! ! 2 ]!. = = = = = = = = = = = = = = = = = = = { ) l ! ! ! ! ! ! ! ! ! ! ! ! ! ! ! ! ! ! ! ",
"! ! ! ! ! ! ! ! ! ! ! ! ! ! ! ! ! ! ! ! ! 2 ^!_!= = = = = = = = = = = = = = = = = `!& ( ! ! ! ! ! ! ! ! ! ! ! ! ! ! ! ! ! ! ! ! ",
"! ! ! ! ! ! ! ! ! ! ! ! ! ! ! ! ! ! ! ! ! ! l ) 4!= = = = = = = = = = = = = = ~ '!' ( ! ! ! ! ! ! ! ! ! ! ! ! ! ! ! ! ! ! ! ! ! ",
"! ! ! ! ! ! ! ! ! ! ! ! ! ! ! ! ! ! ! ! ! ! ! ( $ a!= = = = = = = = = = = = (!b!' # ! ! ! ! ! ! ! ! ! ! ! ! ! ! ! ! ! ! ! ! ! ! ",
"! ! ! ! ! ! ! ! ! ! ! ! ! ! ! ! ! ! ! ! ! ! ! ! ( & c!&!= = = = = = = = = b d!% # ! ! ! ! ! ! ! ! ! ! ! ! ! ! ! ! ! ! ! ! ! ! ! ",
"! ! ! ! ! ! ! ! ! ! ! ! ! ! ! ! ! ! ! ! ! ! ! ! ! ( % e!= = = = = = = = = f!g!# ! ! ! ! ! ! ! ! ! ! ! ! ! ! ! ! ! ! ! ! ! ! ! ! ",
"! ! ! ! ! ! ! ! ! ! ! ! ! ! ! ! ! ! ! ! ! ! ! ! ! ! $ k = = = = = = = = = h!) ! ! ! ! ! ! ! ! ! ! ! ! ! ! ! ! ! ! ! ! ! ! ! ! ! ",
"! ! ! ! ! ! ! ! ! ! ! ! ! ! ! ! ! ! ! ! ! ! ! ! ! ! ) i!= = = = = = = = = j!) ! ! ! ! ! ! ! ! ! ! ! ! ! ! ! ! ! ! ! ! ! ! ! ! ! ",
"! ! ! ! ! ! ! ! ! ! ! ! ! ! ! ! ! ! ! ! ! ! ! ! ! ! ) i!= = = = = = = = = j!) ! ! ! ! ! ! ! ! ! ! ! ! ! ! ! ! ! ! ! ! ! ! ! ! ! ",
"! ! ! ! ! ! ! ! ! ! ! ! ! ! ! ! ! ! ! ! ! ! ! ! ! ! ) i!= = = = = = = = = j!) ! ! ! ! ! ! ! ! ! ! ! ! ! ! ! ! ! ! ! ! ! ! ! ! ! ",
"! ! ! ! ! ! ! ! ! ! ! ! ! ! ! ! ! ! ! ! ! ! ! ! ! ! ) i!= = = = = = = = = j!) ! ! ! ! ! ! ! ! ! ! ! ! ! ! ! ! ! ! ! ! ! ! ! ! ! ",
"! ! ! ! ! ! ! ! ! ! ! ! ! ! ! ! ! ! ! ! ! ! ! ! ! ! ) i!= = = = = = = = = j!) ! ! ! ! ! ! ! ! ! ! ! ! ! ! ! ! ! ! ! ! ! ! ! ! ! ",
"! ! ! ! ! ! ! ! ! ! ! ! ! ! ! ! ! ! ! ! ! ! ! ! ! ! ) i!= = = = = = = = = j!) ! ! ! ! ! ! ! ! ! ! ! ! ! ! ! ! ! ! ! ! ! ! ! ! ! ",
"! ! ! ! ! ! ! ! ! ! ! ! ! ! ! ! ! ! ! ! ! ! ! ! ! ! ) i!= = = = = = = = = j!) ! ! ! ! ! ! ! ! ! ! ! ! ! ! ! ! ! ! ! ! ! ! ! ! ! ",
"! ! ! ! ! ! ! ! ! ! ! ! ! ! ! ! ! ! ! ! ! ! ! ! ! ! ) i!= = = = = = = = = j!) ! ! ! ! ! ! ! ! ! ! ! ! ! ! ! ! ! ! ! ! ! ! ! ! ! ",
"! ! ! ! ! ! ! ! ! ! ! ! ! ! ! ! ! ! ! ! ! ! ! ! ! ! ) i!= = = = = = = = = j!) ! ! ! ! ! ! ! ! ! ! ! ! ! ! ! ! ! ! ! ! ! ! ! ! ! ",
"! ! ! ! ! ! ! ! ! ! ! ! ! ! ! ! ! ! ! ! ! ! ! ! ! ! ) i!= = = = = = = = = j!) ! ! ! ! ! ! ! ! ! ! ! ! ! ! ! ! ! ! ! ! ! ! ! ! ! ",
"! ! ! ! ! ! ! ! ! ! ! ! ! ! ! ! ! ! ! ! ! ! ! ! ! ! ) i!= = = = = = = = = j!) ! ! ! ! ! ! ! ! ! ! ! ! ! ! ! ! ! ! ! ! ! ! ! ! ! ",
"! ! ! ! ! ! ! ! ! ! ! ! ! ! ! ! ! ! ! ! ! ! ! ! ! ! ) i!= = = = = = = = = j!) ! ! ! ! ! ! ! ! ! ! ! ! ! ! ! ! ! ! ! ! ! ! ! ! ! ",
"! ! ! ! ! ! ! ! ! ! ! ! ! ! ! ! ! ! ! ! ! ! ! ! ! ! ) i!= = = = = = = = = j!) ! ! ! ! ! ! ! ! ! ! ! ! ! ! ! ! ! ! ! ! ! ! ! ! ! ",
"! ! ! ! ! ! ! ! ! ! ! ! ! ! ! ! ! ! ! ! ! ! ! ! ! ! ) k!= = = = = = = = = j!) ! ! ! ! ! ! ! ! ! ! ! ! ! ! ! ! ! ! ! ! ! ! ! ! ! ",
"! ! ! ! ! ! ! ! ! ! ! ! ! ! ! ! ! ! ! ! ! ! ! ! ! ! ) u = = = = = = = = = l!) ! ! ! ! ! ! ! ! ! ! ! ! ! ! ! ! ! ! ! ! ! ! ! ! ! ",
"! ! ! ! ! ! ! ! ! ! ! ! ! ! ! ! ! ! ! ! ! ! ! ! ! ! ) m!= = = = = = = = = n!2 ! ! ! ! ! ! ! ! ! ! ! ! ! ! ! ! ! ! ! ! ! ! ! ! ! ",
"! ! ! ! ! ! ! ! ! ! ! ! ! ! ! ! ! ! ! ! ! ! ! ! ! ! ( o!p!= = = = = = = q!r!# ! ! ! ! ! ! ! ! ! ! ! ! ! ! ! ! ! ! ! ! ! ! ! ! ! ",
"! ! ! ! ! ! ! ! ! ! ! ! ! ! ! ! ! ! ! ! ! ! ! ! ! ! ! 2 s!t!u!v!A!w!x!y!z!l ! ! ! ! ! ! ! ! ! ! ! ! ! ! ! ! ! ! ! ! ! ! ! ! ! ! ",
"! ! ! ! ! ! ! ! ! ! ! ! ! ! ! ! ! ! ! ! ! ! ! ! ! ! ! ! ) % 2 ]!3 {!) % l ! ! ! ! ! ! ! ! ! ! ! ! ! ! ! ! ! ! ! ! ! ! ! ! ! ! ! ",
"! ! ! ! ! ! ! ! ! ! ! ! ! ! ! ! ! ! ! ! ! ! ! ! ! ! ! ! ! ! # l l ( # ! ! ! ! ! ! ! ! ! ! ! ! ! ! ! ! ! ! ! ! ! ! ! ! ! ! ! ! ! ",
"! ! ! ! ! ! ! ! ! ! ! ! ! ! ! ! ! ! ! ! ! ! ! ! ! ! ! ! ! ! ! ! ! ! ! ! ! ! ! ! ! ! ! ! ! ! ! ! ! ! ! ! ! ! ! ! ! ! ! ! ! ! ! ! ",
"! ! ! ! ! ! ! ! ! ! ! ! ! ! ! ! ! ! ! ! ! ! ! ! ! ! ! ! ! ! ! ! ! ! ! ! ! ! ! ! ! ! ! ! ! ! ! ! ! ! ! ! ! ! ! ! ! ! ! ! ! ! ! ! ",
"! ! ! ! ! ! ! ! ! ! ! ! ! ! ! ! ! ! ! ! ! ! ! ! ! ! ! ! ! ! ! ! ! ! ! ! ! ! ! ! ! ! ! ! ! ! ! ! ! ! ! ! ! ! ! ! ! ! ! ! ! ! ! ! ",
"! ! ! ! ! ! ! ! ! ! ! ! ! ! ! ! ! ! ! ! ! ! ! ! ! ! ! ! ! ! ! ! ! ! ! ! ! ! ! ! ! ! ! ! ! ! ! ! ! ! ! ! ! ! ! ! ! ! ! ! ! ! ! ! ",
"! ! ! ! ! ! ! ! ! ! ! ! ! ! ! ! ! ! ! ! ! ! ! ! ! ! ! ! ! ! ! ! ! ! ! ! ! ! ! ! ! ! ! ! ! ! ! ! ! ! ! ! ! ! ! ! ! ! ! ! ! ! ! ! "};