/* XPM */ 
static const unsigned char * bitcoin16_xpm[] = {
"16 16 75 1",
" 	c None",
"!	c #0080FF",
"#	c #0081FF",
"$	c #007AFF",
"%	c #0077FF",
"&	c #007EFF",
"'	c #007DFF",
"(	c #007BFF",
")	c #2E93FF",
"*	c #4EA3FF",
"+	c #0C83FF",
",	c #0F84FF",
"-	c #50A4FF",
".	c #2A92FF",
"0	c #0475FF",
"1	c #D9EBFF",
"2	c white",
"3	c #BBDBFF",
"4	c #1784FF",
"5	c #0079FF",
"6	c #0078FF",
"7	c #1B86FF",
"8	c #C2DEFF",
"9	c #C5E1FF",
":	c #5EABFF",
";	c #F8FBFF",
"<	c #C7E1FF",
"=	c #1C87FF",
">	c #2189FF",
"?	c #CCE4FF",
"@	c #F7FAFF",
"A	c #53A4FF",
"B	c #0075FF",
"C	c #50A3FF",
"D	c #F3F9FF",
"E	c #CFE5FF",
"F	c #238AFF",
"G	c #258CFF",
"H	c #D3E8FF",
"I	c #EFF6FF",
"J	c #4BA0FF",
"K	c #0074FF",
"L	c #469DFF",
"M	c #EBF5FF",
"N	c #D5E9FF",
"O	c #278DFF",
"P	c #006EFF",
"Q	c #2A90FF",
"R	c #D8EBFF",
"S	c #E7F2FF",
"T	c #409AFF",
"U	c #3A97FF",
"V	c #E3F1FF",
"W	c #5FA6FF",
"X	c #DEEFFF",
"Y	c #3594FF",
"Z	c #0076FF",
"[	c #3092FF",
"]	c #DBECFF",
"^	c #D8EAFF",
"_	c #2B90FF",
"`	c #288FFF",
"a	c #DEEEFF",
"b	c #007FFF",
"c	c #B5D9FF",
"d	c #ACD5FF",
"e	c #BADCFF",
"f	c #B2D8FF",
"g	c #BBDCFF",
"h	c #B3D8FF",
"i	c #007CFF",
"j	c #C3E0FF",
"k	c #51A5FF",
"l	c #99C8FF",
"m	c #4DA3FF",
"!!!!!!!!!!!!!!!!",
"#$%&!!!!!!!!!'%(",
"')*+$#!!!!!!$,-.",
"012345!!!!!67829",
"%:;2<=6!!!%>?2@A",
"!BCD2EF%#%GH2IJK",
"!!KLM2NOPQR2STB!",
"!!!BUV2NWR2XYZ!!",
"!!!!Z[]222^_Z!!!",
"!!!!!Z`a21G%!!!!",
"!!!!!b6c2dZb!!!!",
"!!!!!b'e2f(b!!!!",
"!!!!!b'g2h(b!!!!",
"!!!!!bij2e(b!!!!",
"!!!!!!iklmi!!!!!",
"!!!!!!!5%$!!!!!!"};