/* XPM */ 
static const unsigned char * bitcoin32_xpm[] = {
"32 32 125 2",
"  	c None",
"! 	c #0080FF",
"# 	c #007EFF",
"$ 	c #007BFF",
"% 	c #007DFF",
"& 	c #007FFF",
"' 	c #0081FF",
"( 	c #017DFF",
") 	c #218CFF",
"* 	c #258EFF",
"+ 	c #0880FF",
", 	c #007AFF",
"- 	c #0079FF",
". 	c #0C82FF",
"0 	c #268FFF",
"1 	c #208BFF",
"2 	c #007CFF",
"3 	c #248DFF",
"4 	c #B7D9FF",
"5 	c #EAF4FF",
"6 	c #EEF6FF",
"7 	c #C8E3FF",
"8 	c #3C9AFF",
"9 	c #0077FF",
": 	c #4AA1FF",
"; 	c #D0E7FF",
"< 	c #EFF7FF",
"= 	c #E9F3FF",
"> 	c #B0D6FF",
"? 	c #1D8AFF",
"@ 	c #0072FF",
"A 	c #75B8FF",
"B 	c white",
"C 	c #ECF5FF",
"D 	c #479FFF",
"E 	c #56A7FF",
"F 	c #F5FAFF",
"G 	c #61AEFF",
"H 	c #2D92FF",
"I 	c #E6F3FF",
"J 	c #F1F8FF",
"K 	c #4FA4FF",
"L 	c #5EACFF",
"M 	c #F9FCFF",
"N 	c #DBEDFF",
"O 	c #228CFF",
"P 	c #0078FF",
"Q 	c #3997FF",
"R 	c #E1F0FF",
"S 	c #F6FAFF",
"T 	c #57A8FF",
"U 	c #68B1FF",
"V 	c #FBFDFF",
"W 	c #DAECFF",
"X 	c #2D91FF",
"Y 	c #0076FF",
"Z 	c #2F93FF",
"[ 	c #61ADFF",
"] 	c #71B5FF",
"^ 	c #FEFFFF",
"_ 	c #D2E7FF",
"` 	c #278DFF",
"a 	c #288FFF",
"b 	c #D3E9FF",
"c 	c #FCFDFF",
"d 	c #6BB1FF",
"e 	c #79B9FF",
"f 	c #C8E2FF",
"g 	c #208AFF",
"h 	c #228BFF",
"i 	c #CAE4FF",
"j 	c #75B7FF",
"k 	c #80BDFF",
"l 	c #BCDCFF",
"m 	c #1786FF",
"n 	c #1987FF",
"o 	c #BFDEFF",
"p 	c #7DBBFF",
"q 	c #87C1FF",
"r 	c #B2D7FF",
"s 	c #1083FF",
"t 	c #1284FF",
"u 	c #B5D9FF",
"v 	c #83BFFF",
"w 	c #027CFF",
"x 	c #90C6FF",
"y 	c #A6D1FF",
"z 	c #0980FF",
"{ 	c #0B80FF",
"| 	c #A9D3FF",
"} 	c #8AC3FF",
"~ 	c #1381FF",
" !	c #98CAFF",
"!!	c #99CBFF",
"#!	c #057DFF",
"$!	c #067EFF",
"%!	c #9DCDFF",
"&!	c #D9EBFF",
"'!	c #8CC4FF",
"(!	c #017CFF",
")!	c #82BEFF",
"*!	c #85C0FF",
"+!	c #78B9FF",
",!	c #7DBCFF",
"-!	c #FAFCFF",
".!	c #F7FBFF",
"0!	c #6EB3FF",
"1!	c #1687FF",
"2!	c #E7F3FF",
"3!	c #D9ECFF",
"4!	c #1F8DFF",
"5!	c #1287FF",
"6!	c #208DFF",
"7!	c #1387FF",
"8!	c #228EFF",
"9!	c #EBF5FF",
":!	c #DEEEFF",
";!	c #1488FF",
"<!	c #D1E8FF",
"=!	c #0B82FF",
">!	c #419DFF",
"?!	c #9BCBFF",
"@!	c #ACD5FF",
"A!	c #97C9FF",
"B!	c #3899FF",
"! ! ! ! ! ! ! ! ! ! ! ! ! ! ! ! ! ! ! ! ! ! ! ! ! ! ! ! ! ! ! ! ",
"! ! ! ! ! ! ! ! ! ! ! ! ! ! ! ! ! ! ! ! ! ! ! ! ! ! ! ! ! ! ! ! ",
"! ! ! ! ! ! ! ! ! ! ! ! ! ! ! ! ! ! ! ! ! ! ! ! ! ! ! ! ! ! ! ! ",
"! ! # $ $ # ! ! ! ! ! ! ! ! ! ! ! ! ! ! ! ! ! ! ! ! ! % $ $ & ! ",
"' $ ( ) * + , ! ! ! ! ! ! ! ! ! ! ! ! ! ! ! ! ! ! ! - . 0 1 2 2 ",
"$ 3 4 5 6 7 8 9 ! ! ! ! ! ! ! ! ! ! ! ! ! ! ! ! & 9 : ; < = > ? ",
"@ A B B B B C D 9 ! ! ! ! ! ! ! ! ! ! ! ! ! ! & 9 E F B B B B G ",
", H I B B B B J K 9 & ! ! ! ! ! ! ! ! ! ! ! & 9 L M B B B B N O ",
"' P Q R B B B B S T 9 & ! ! ! ! ! ! ! ! ! & 9 U V B B B B W X - ",
"! ! Y Z W B B B B M [ 9 & ! ! ! ! ! ! ! & P ] ^ B B B B _ ` Y ! ",
"! ! ! - a b B B B B c d 9 & ! ! ! ! ! # P e B B B B B f g P ! ! ",
"! ! ! ! - h i B B B B B j P # ! ! ! # - k B B B B B l m , ! ! ! ",
"! ! ! ! ! , n o B B B B B p - # ! # $ q B B B B B r s $ ! ! ! ! ",
"! ! ! ! ! ! , t u B B B B B v , , w x B B B B B y z 2 ! ! ! ! ! ",
"! ! ! ! ! ! ! $ { | B B B B B } ~  !B B B B B !!#!2 ! ! ! ! ! ! ",
"! ! ! ! ! ! ! ! 2 $!%!B B B B B &!B B B B B '!(!% ! ! ! ! ! ! ! ",
"! ! ! ! ! ! ! ! ! % w x B B B B B B B B B )!, # ! ! ! ! ! ! ! ! ",
"! ! ! ! ! ! ! ! ! ! % , *!B B B B B B B +!P # ! ! ! ! ! ! ! ! ! ",
"! ! ! ! ! ! ! ! ! ! ! # - ,!-!B B B .!0!9 & ! ! ! ! ! ! ! ! ! ! ",
"! ! ! ! ! ! ! ! ! ! ! ! % 1!2!B B B 3!+ # ! ! ! ! ! ! ! ! ! ! ! ",
"! ! ! ! ! ! ! ! ! ! ! ! # 4!2!B B B 3!5!& ! ! ! ! ! ! ! ! ! ! ! ",
"! ! ! ! ! ! ! ! ! ! ! ! # 6!2!B B B W 7!& ! ! ! ! ! ! ! ! ! ! ! ",
"! ! ! ! ! ! ! ! ! ! ! ! # 6!2!B B B W 7!& ! ! ! ! ! ! ! ! ! ! ! ",
"! ! ! ! ! ! ! ! ! ! ! ! # 6!2!B B B W 7!& ! ! ! ! ! ! ! ! ! ! ! ",
"! ! ! ! ! ! ! ! ! ! ! ! # 6!2!B B B W 7!& ! ! ! ! ! ! ! ! ! ! ! ",
"! ! ! ! ! ! ! ! ! ! ! ! # 6!2!B B B W 7!& ! ! ! ! ! ! ! ! ! ! ! ",
"! ! ! ! ! ! ! ! ! ! ! ! # 8!9!B B B :!;!& ! ! ! ! ! ! ! ! ! ! ! ",
"! ! ! ! ! ! ! ! ! ! ! ! # 7!:!B B B <!=!& ! ! ! ! ! ! ! ! ! ! ! ",
"! ! ! ! ! ! ! ! ! ! ! ! ! % >!?!@!A!B!% ! ! ! ! ! ! ! ! ! ! ! ! ",
"! ! ! ! ! ! ! ! ! ! ! ! ! ! - 9 - 9 , ! ! ! ! ! ! ! ! ! ! ! ! ! ",
"! ! ! ! ! ! ! ! ! ! ! ! ! ! ! ! & ! ! ! ! ! ! ! ! ! ! ! ! ! ! ! ",
"! ! ! ! ! ! ! ! ! ! ! ! ! ! ! ! ! ! ! ! ! ! ! ! ! ! ! ! ! ! ! ! "};